<?xml version="1.0" standalone="no"?>
<!DOCTYPE svg PUBLIC "-//W3C//DTD SVG 20010904//EN"
 "http://www.w3.org/TR/2001/REC-SVG-20010904/DTD/svg10.dtd">
<svg version="1.0" xmlns="http://www.w3.org/2000/svg"
 width="256.000000pt" height="256.000000pt" viewBox="0 0 256.000000 256.000000"
 preserveAspectRatio="xMidYMid meet">
<metadata>
Created by potrace 1.14, written by Peter Selinger 2001-2017
</metadata>
<g transform="translate(0.000000,256.000000) scale(0.100000,-0.100000)"
fill="#000000" stroke="none">
<path d="M1249 2390 c-36 -10 -433 -409 -446 -446 -5 -16 -8 -35 -7 -41 1 -7
2 -21 3 -30 0 -9 96 -113 213 -230 222 -222 239 -235 304 -219 27 7 421 392
442 433 7 12 12 38 12 59 0 35 -12 49 -207 246 -115 115 -216 214 -226 220
-27 14 -58 17 -88 8z"/>
<path d="M606 1753 c-37 -20 -412 -396 -429 -431 -7 -15 -12 -33 -11 -39 1 -7
2 -23 3 -35 1 -14 75 -96 213 -235 221 -222 239 -235 303 -219 15 4 114 95
235 216 218 219 234 241 215 302 -8 23 -366 392 -418 430 -36 26 -76 30 -111
11z"/>
<path d="M1848 1752 c-14 -9 -114 -105 -221 -213 -202 -202 -217 -223 -202
-287 7 -33 421 -451 448 -453 9 -1 24 -1 32 -1 8 0 24 0 34 1 27 1 428 402
445 444 13 32 13 67 -2 92 -11 20 -83 94 -264 273 -157 153 -168 162 -204 162
-22 0 -51 -8 -66 -18z"/>
<path d="M1225 1129 c-29 -18 -410 -400 -423 -426 -7 -12 -12 -38 -12 -59 0
-33 11 -48 123 -163 301 -310 330 -332 401 -308 38 13 424 399 441 441 15 38
11 70 -14 105 -11 14 -107 113 -214 220 -185 184 -196 193 -238 197 -24 3 -53
-1 -64 -7z"/>
</g>
</svg>
